<?xml version="1.0" encoding="utf-8"?>
<!-- Generator: Adobe Illustrator 25.0.0, SVG Export Plug-In . SVG Version: 6.00 Build 0)  -->
<svg version="1.1" id="图层_1" xmlns="http://www.w3.org/2000/svg" xmlns:xlink="http://www.w3.org/1999/xlink" x="0px" y="0px"
	 viewBox="0 0 799.4 598.7" style="enable-background:new 0 0 799.4 598.7;" xml:space="preserve">
<style type="text/css">
	.st0{clip-path:url(#SVGID_2_);fill:#1226AA;}
</style>
<g>
	<defs>
		<rect id="SVGID_1_" width="799.4" height="598.7"/>
	</defs>
	<clipPath id="SVGID_2_">
		<use xlink:href="#SVGID_1_"  style="overflow:visible;"/>
	</clipPath>
	<path class="st0" d="M143.1,365.6c10.1,6.2,35,15.4,59.5,13.7c28.1-2,53.7-16,73-37.6c109.2,68.5,304.2-12,331.5-25.7
		c74.4-37.2,89.9,2.3,42,36.1c84.1-22.9,134-78,128.5-117.7c-4.4-31.8-31.2-57.3-77.1-50.2c-19.2,3-37.2,7.8-54.5,14
		c99.5-73,31.8-149.6-60.8-116.3c-9.9,3.6-19.4,8.5-28.5,14.3c56.2-89.4-74-143.7-126.2-38.7c-33.3,67-40.8,201.8-125.4,230.9
		c2.7-8.8,4.6-18.1,5.7-27.6c0.5-4.5,0.8-9,0.8-13.4c71-84,7.5-190.6-54.5-190c-69.2,0.7-77.4,73.7-44.6,95.6
		c-53.8,5.2-88.6,43.8-72.6,91.4c6.7-28.7,31.2-37.9,48.1-39.1c41.8-2.9,75.7,28.9,75.7,71.1c0,42.2-33.9,78.8-75.7,81.7
		c-35.1,2.5-66.1-16.2-69.9-49.1c-0.5-4.6-6.6-28.2,18.8-43.9c12-7.4,30.4-7.4,37.8,10.3c5.1,12.2-5.8,19.1-9.8,31.8
		c-1.7,5.7,3.9,24.2,22.7,22.3c17-1.7,35.4-13.1,41-39.5c4.5-21.1-5.4-59.3-55.5-55.8c-41.6,2.9-67.7,36.5-62.7,76.8
		C113.7,335,124.5,354.1,143.1,365.6 M595.7,181.8c38.2-23.9,57.1-3.7,42.8,19.2C506.2,251.8,423.8,377.8,288,325.3
		C405.7,360.6,542.2,215.2,595.7,181.8 M470.7,133.9c38.2-63.3,79.2-72.5,80.3-33.7C463,162.3,409.3,317.8,298.4,306.3
		C383,299.3,441.2,182.7,470.7,133.9 M222.9,152.5l-7.7,0.3c17.7-64,134.7-22.4,94.3,72.4C300.7,182.7,267,151.7,222.9,152.5
		 M286.3,432.2c0-14.8-12.6-26.8-28.2-26.8c-15.6,0-28.2,12-28.2,26.8c0,14.8,12.6,26.8,28.2,26.8
		C273.7,459,286.3,446.9,286.3,432.2 M454.4,581.7c-8.3-1.7-15.4-5.3-12.6-15.7l15.5-57.5c5-16.5-1.1-28.6-9.2-32.9
		c-20.7-10.9-68.9-1.3-86.6,11.4l2.3-7.6c2.2-6-1.6-8.6-6-8.6h-64.5c-4.1,0-3.8,4.9-0.6,5.6c8.9,1.9,17.1,12.7,15.4,20.2
		c0,0-16,64-22.2,70.4c-15.6,16.2-26.9,16-31.1,9.4c-1.3-2.1-2.2-5.1-0.6-10.5l26-85.9c0.5-0.9,0.8-1.9,0.8-3c0-3.3-2.8-6.1-6.4-6.2
		h-81.4c-2.6,0-3.8,5.5-0.6,5.9c7.4,1,33.4,4.9,28,23.2l-19.1,65c-4.1,12.3-17.6,14.7-25.1,15.5c-5.2,0.2-4.3,5.6-1.8,5.7h177.9
		c1.8-1,1.9-3.1-0.6-4.1c-13.6-3.3-14.4-13.5-12.2-20.3l18.8-64.3c12.6-8.5,51.2-16.9,51.2-4.3c0,3-19.3,72.7-19.3,72.7
		c-3.6,8.8-14.5,15.8-22.5,15.8c-4.1,0.2-4,4.5-1.7,4.5h88.3C457.7,586.2,456.9,582.2,454.4,581.7 M2.8,437.8
		c10.8,3.6,22.6,11.5,38.4,63.1c7.6,24.8,32.3,88.9,32.3,88.9c2.1,7.1,10,7.6,16.1,0.8c19.1-19.1,106.4-133.7,123-150.3
		c3.9-4.4,0.7-7.4-1.5-7.4h-61.6c-2.2,0.7-2,3.9,2.1,4.2c12.9,0.9,33.1,7.4,23.7,24.1c-2.9,5.2-51.6,68.6-53.7,70.3
		c-5.1,6.4-10.3,5.5-12.7-2.5l-22.1-66.5c-6.1-20.8,21.3-24.9,26.1-24.9c5.1,0,4.6-4.1,2.5-4.1H1.7C-0.8,433.4-0.7,436.6,2.8,437.8
		 M497.9,592.1c14.8,2.3,46.2-4.6,65.9-12.7c4.9,16.6,27.1,18.8,70.5,7.9c1.7,0,1.9-4.6-1.2-4.6c-16.8,0-22.5-5-18.8-15.6
		l37.6-134.8c2.8-8.7,0.3-16.1-10.9-16.1h-73.1c-3-0.1-3.6,4.2,0.9,5.1c11.7,2.5,29.6,9.8,25.1,28c0,0-3.5,13.9-8.4,33
		c-9.9-5.7-34.7-14.8-76.8,0.3C461.7,499.8,431,581.9,497.9,592.1 M541.2,490.2c20.8-6.9,34.1-0.9,41.2,4.6
		c-6.4,24.6-14,54-19.5,73.6c0,0.2,0,0.5,0,0.7c-10.6,4.1-22.9,6.7-29.8,4.7C489.8,561.3,512.9,499.6,541.2,490.2 M667.1,474.2
		c-15,8.9-24.6,24.3-14.6,33.6c14.1,13.2,36.6,1.6,40.1-3.8c3.2-5,2.8-10.5,3.2-17c0.8-12.4,18.5-20.5,23-21.1
		c25.8-3.5,35.9,16.5,33.2,28.4c-0.3,1.4-1.1,3.7-2,6l-0.5,1.5c-51.3,5.2-94.7,28.5-110.1,47.5c-14.3,17.6-10.2,44.7,23.6,44
		c31.3-0.7,50.7-13.7,62.6-20.7c0.1,5.9,3,28.2,29.8,26c18.4-1.5,32.3-6,40.9-11.3c6.5-3.5,1.2-8.5-2.1-6.9
		c-14,5.5-22.6,1.7-18.5-12.4l19.5-65.3c4.5-15.7-1.6-26.7-14.5-33.4C760,458.6,707.3,450.4,667.1,474.2 M728.7,562.9
		c-6.8,4.8-19.7,11.7-31.9,13.6c-5.9,0.9-23.3-2.6-20-19.8c3-15.2,25.9-38.7,69.4-45.1L728.7,562.9z"/>
</g>
</svg>
